<?xml version="1.0" encoding="utf-8"?>
<!-- Generator: Adobe Illustrator 16.0.0, SVG Export Plug-In . SVG Version: 6.00 Build 0)  -->
<!DOCTYPE svg PUBLIC "-//W3C//DTD SVG 1.1//EN" "http://www.w3.org/Graphics/SVG/1.1/DTD/svg11.dtd">
<svg version="1.1" id="Layer_1" xmlns="http://www.w3.org/2000/svg" xmlns:xlink="http://www.w3.org/1999/xlink" x="0px" y="0px"
	 width="664px" height="157.6px" viewBox="0 0 664 157.6" enable-background="new 0 0 664 157.6" xml:space="preserve">
<circle fill="#1A9495" cx="78.8" cy="78.8" r="78.8"/>
<g>
	<path fill="#FFFFFF" d="M21.3,89.8c0.4,0.4,0.9,0.7,1.5,1c0.6,0.3,1.6,0.4,2.9,0.4c1.1,0,2.1-0.1,3-0.4c0.9-0.3,1.7-0.7,2.4-1.2
		c0.7-0.5,1.2-1.2,1.6-2c0.4-0.8,0.6-1.7,0.6-2.7c0-1.3-0.4-2.5-1.2-3.4c-0.8-0.9-1.8-1.7-3.1-2.4c-1.2-0.7-2.5-1.4-4-2.1
		c-1.4-0.7-2.8-1.5-4-2.4c-1.2-0.9-2.2-2-3.1-3.3c-0.8-1.3-1.2-2.9-1.2-4.8c0-1.4,0.2-2.6,0.8-3.8c0.5-1.1,1.2-2,2.1-2.8
		c0.9-0.8,2-1.4,3.3-1.8c1.3-0.4,2.7-0.6,4.2-0.6c2,0,3.9,0.2,5.6,0.5c1.7,0.3,3,0.7,4,1.2c0,0.6,0,1.2-0.1,2
		c-0.1,0.8-0.2,1.5-0.3,2.3c-0.1,0.8-0.2,1.6-0.4,2.3c-0.1,0.8-0.3,1.4-0.4,2h-1.3l-2-6.9c-0.6-0.3-1.4-0.5-2.3-0.6
		c-0.9-0.1-1.9-0.2-3-0.2c-1.7,0-3.1,0.5-4.1,1.4s-1.6,2.3-1.6,4c0,1.4,0.4,2.5,1.2,3.4c0.8,0.9,1.9,1.8,3.1,2.5
		c1.2,0.7,2.6,1.4,4,2.1c1.4,0.7,2.8,1.5,4,2.4c1.2,0.9,2.3,2,3.1,3.2c0.8,1.2,1.2,2.8,1.2,4.6c0,1.5-0.3,2.9-0.8,4.1
		c-0.5,1.2-1.3,2.3-2.4,3.2c-1,0.9-2.3,1.5-3.8,2c-1.5,0.5-3.2,0.7-5.1,0.7c-2.1,0-4-0.2-5.6-0.8c-1.7-0.5-2.9-1-3.6-1.6
		c0-0.6,0.1-1.2,0.2-2c0.1-0.8,0.2-1.6,0.3-2.5c0.1-0.8,0.2-1.7,0.4-2.5c0.1-0.8,0.3-1.5,0.4-2h1.3L21.3,89.8z"/>
	<path fill="#FFFFFF" d="M54.7,93.2H42.1v-1.5c1.3-0.5,2.7-0.9,4.1-1.2V60.9c-1.6-0.2-2.9-0.7-4.1-1.2v-1.5h12.6v1.5
		c-0.6,0.3-1.2,0.5-1.8,0.8c-0.6,0.2-1.3,0.4-1.9,0.5v13h15.7v-13c-0.7-0.2-1.4-0.4-2-0.5c-0.6-0.2-1.2-0.4-1.8-0.7v-1.5h12.7v1.5
		c-0.6,0.3-1.3,0.6-2,0.8c-0.7,0.2-1.4,0.3-2.1,0.5v29.6c0.8,0.1,1.5,0.3,2.2,0.5c0.7,0.2,1.3,0.4,1.9,0.7v1.5H62.9v-1.5
		c1.2-0.5,2.5-0.9,3.8-1.2v-14H51v14c0.7,0.1,1.3,0.3,1.9,0.5c0.6,0.2,1.2,0.4,1.8,0.7V93.2z"/>
	<path fill="#FFFFFF" d="M79.6,75.7c0-2.6,0.4-5,1.1-7.2s1.8-4.1,3.1-5.8c1.3-1.6,3-2.9,5-3.8s4.2-1.3,6.7-1.3s4.7,0.4,6.7,1.3
		c2,0.9,3.6,2.2,5,3.8c1.4,1.6,2.4,3.5,3.1,5.8c0.7,2.2,1.1,4.6,1.1,7.2s-0.4,5-1.1,7.2c-0.7,2.2-1.8,4.1-3.1,5.8
		c-1.3,1.6-3,2.9-5,3.8c-2,0.9-4.2,1.3-6.7,1.3s-4.7-0.4-6.7-1.3s-3.6-2.2-5-3.8c-1.4-1.6-2.4-3.5-3.1-5.8
		C80,80.8,79.6,78.3,79.6,75.7z M85,75.7c0,2.1,0.2,4.1,0.7,6s1.1,3.5,2,4.9c0.9,1.4,2,2.5,3.4,3.3s3,1.2,4.9,1.2
		c1.7,0,3.2-0.4,4.5-1.2c1.3-0.8,2.3-1.9,3.1-3.3c0.8-1.4,1.4-3,1.8-4.9c0.4-1.9,0.6-3.9,0.6-6c0-2.1-0.2-4.1-0.7-6
		c-0.4-1.9-1.1-3.5-2-4.9c-0.9-1.4-2-2.5-3.4-3.3c-1.4-0.8-3-1.2-4.9-1.2c-1.8,0-3.4,0.4-4.7,1.2c-1.3,0.8-2.3,1.9-3.1,3.3
		c-0.8,1.4-1.4,3-1.8,4.9C85.2,71.6,85,73.6,85,75.7z"/>
	<path fill="#FFFFFF" d="M124.3,90.6c0.9,0.1,1.8,0.3,2.6,0.5c0.8,0.2,1.5,0.5,2.2,0.7v1.5h-13.7v-1.5c0.7-0.3,1.3-0.6,2-0.8
		c0.7-0.2,1.4-0.3,2-0.5V60.9c-0.8-0.1-1.5-0.3-2.1-0.5c-0.7-0.2-1.3-0.5-2-0.7v-1.5h4.5c1.3,0,2.8-0.1,4.3-0.2
		c1.6-0.1,3.1-0.2,4.5-0.2c1.6,0,3.2,0.2,4.8,0.5s3,0.9,4.2,1.8c1.2,0.8,2.2,1.9,2.9,3.3c0.8,1.4,1.1,3.1,1.1,5.2c0,2-0.4,3.6-1.1,5
		c-0.8,1.4-1.8,2.5-3.1,3.5c-1.3,0.9-2.7,1.6-4.4,2c-1.6,0.4-3.3,0.6-5,0.6c-0.2,0-0.4,0-0.8,0c-0.3,0-0.7,0-1.1,0
		c-0.4,0-0.8,0-1.1-0.1c-0.4,0-0.6-0.1-0.8-0.1V90.6z M127.7,60.4c-0.8,0-1.5,0-2,0s-1,0.1-1.5,0.2v16.2c0.2,0.1,0.4,0.1,0.7,0.1
		c0.3,0,0.6,0,1,0.1c0.3,0,0.7,0.1,1,0.1s0.6,0,0.8,0c1.2,0,2.3-0.2,3.3-0.5c1-0.3,1.9-0.8,2.7-1.5c0.8-0.7,1.4-1.6,1.9-2.7
		c0.5-1.1,0.7-2.3,0.7-3.8c0-2.7-0.8-4.8-2.3-6.2C132.6,61.1,130.5,60.4,127.7,60.4z"/>
</g>
<g>
	<path d="M168.7,41.4H193v2.8c-1,0.5-2.2,1-3.4,1.4c-1.3,0.4-2.5,0.6-3.7,0.8v42h14.3l5-13.2h3c0.2,1.1,0.4,2.5,0.6,4
		c0.2,1.5,0.3,3.1,0.4,4.8c0.1,1.7,0.2,3.3,0.2,5c0,1.6,0,3.1,0,4.3h-40.6v-2.8c1.1-0.6,2.2-1.1,3.2-1.4c1-0.3,2-0.6,2.8-0.7V46.4
		c-2.4-0.4-4.4-1.1-6.1-2.1V41.4z"/>
	<path d="M228.1,93.2h-16.2v-2c1.4-0.8,2.8-1.3,4.2-1.5V60.5c-0.7-0.1-1.4-0.3-2.2-0.6c-0.8-0.3-1.4-0.6-2-0.9v-2h16.2v2
		c-0.6,0.4-1.3,0.7-2,1c-0.7,0.3-1.5,0.4-2.1,0.5v29.3c0.7,0.1,1.4,0.3,2.1,0.6c0.7,0.2,1.4,0.6,2,0.9V93.2z"/>
	<path d="M276.7,93.2h-15.5v-2c0.7-0.3,1.4-0.6,2-0.9c0.7-0.2,1.4-0.4,2.1-0.6V68.1l0.3-6.1h-0.4l-1.7,5.5l-10,25.6h-2.4l-9.9-25.4
		l-1.9-6.1h-0.5l0.1,6.6v21.2c0.7,0.1,1.4,0.4,2.2,0.7c0.8,0.3,1.5,0.7,2.2,1v2h-12.6v-2c0.6-0.3,1.2-0.6,2-1
		c0.8-0.4,1.6-0.6,2.3-0.8V60.5c-0.7-0.1-1.4-0.3-2.2-0.6c-0.8-0.2-1.5-0.6-2-0.9v-2h14l7.9,21.1l1.5,5h0.1l1.6-5.1l8.1-21h12.8v2
		c-0.6,0.3-1.2,0.6-1.9,0.9c-0.7,0.3-1.4,0.5-2,0.6v29.4c0.7,0.1,1.4,0.3,2.1,0.6c0.7,0.3,1.3,0.6,1.8,0.8V93.2z"/>
	<path d="M295.5,93.2h-16.2v-2c1.4-0.8,2.8-1.3,4.2-1.5V60.5c-0.7-0.1-1.4-0.3-2.2-0.6c-0.8-0.3-1.4-0.6-2-0.9v-2h16.2v2
		c-0.6,0.4-1.3,0.7-2,1c-0.7,0.3-1.5,0.4-2.1,0.5v29.3c0.7,0.1,1.4,0.3,2.1,0.6c0.7,0.2,1.4,0.6,2,0.9V93.2z"/>
	<path d="M323.2,93.2h-17.8v-2c0.7-0.3,1.5-0.6,2.4-0.9c0.9-0.3,1.8-0.5,2.7-0.6V60.4h-6l-3.3,8.9H299c-0.1-0.7-0.3-1.6-0.4-2.6
		c-0.1-1.1-0.3-2.2-0.4-3.3s-0.2-2.3-0.3-3.4c-0.1-1.1-0.1-2.1-0.1-2.9h32.9c0,0.8,0,1.8-0.1,2.9c-0.1,1.1-0.2,2.2-0.3,3.4
		s-0.2,2.2-0.4,3.3c-0.1,1.1-0.3,1.9-0.4,2.7h-2.1l-3.3-8.9h-6v29.4c0.9,0.2,1.8,0.4,2.7,0.6c0.9,0.2,1.7,0.5,2.4,0.9V93.2z"/>
	<path d="M359.8,57c-0.1,1.6-0.2,3.2-0.4,4.8s-0.4,3.2-0.7,4.7h-2.1l-2.4-6.1h-9.7V73h6.3l2.3-4h1.7c0.2,1.7,0.3,3.6,0.3,5.6
		c0,2.1-0.1,4-0.3,5.8h-1.7l-2.3-4.1h-6.3v13.5h10.1l2.7-6.6h2.1c0.1,0.7,0.3,1.4,0.4,2.2c0.1,0.8,0.2,1.7,0.3,2.6s0.2,1.8,0.2,2.7
		c0.1,0.9,0.1,1.7,0.1,2.5h-28v-2c0.6-0.3,1.2-0.6,2-0.9c0.7-0.3,1.5-0.5,2.3-0.6V60.5c-0.7-0.1-1.4-0.3-2.2-0.6
		c-0.8-0.3-1.5-0.6-2-0.9v-2H359.8z"/>
	<path d="M363.9,93.2v-2c0.6-0.3,1.2-0.6,2-0.9c0.7-0.3,1.5-0.5,2.3-0.6V60.5c-0.8-0.2-1.6-0.4-2.3-0.6c-0.7-0.3-1.4-0.5-1.9-0.9v-2
		h6c0.6,0,1.3,0,2.2-0.1c0.9,0,1.8-0.1,2.7-0.1s1.8-0.1,2.7-0.2c0.9-0.1,1.6-0.1,2.3-0.1c3,0,5.7,0.4,8.1,1.2s4.4,2,6,3.5
		c1.6,1.5,2.9,3.4,3.8,5.6c0.9,2.2,1.3,4.8,1.3,7.8c0,2.9-0.4,5.5-1.2,7.8c-0.8,2.3-2.1,4.4-3.7,6s-3.8,2.9-6.3,3.9
		c-2.5,0.9-5.5,1.4-8.9,1.4c-0.4,0-1.1,0-1.8-0.1c-0.8-0.1-1.6-0.1-2.4-0.2c-0.9-0.1-1.7-0.1-2.6-0.2c-0.9-0.1-1.6-0.1-2.3-0.1
		H363.9z M379.1,59.9c-0.6,0-1.2,0-1.9,0.1c-0.6,0-1.2,0.1-1.6,0.2v30c0.1,0,0.4,0.1,0.7,0.1c0.3,0,0.7,0,1.1,0.1
		c0.4,0,0.7,0,1.1,0.1c0.3,0,0.6,0,0.8,0c2,0,3.7-0.4,5.1-1.2c1.4-0.8,2.5-2,3.4-3.4c0.9-1.4,1.6-3.1,2-5c0.4-1.9,0.6-3.9,0.6-6.1
		c0-1.9-0.2-3.7-0.6-5.5c-0.4-1.8-1.1-3.3-2-4.7c-0.9-1.4-2.1-2.5-3.5-3.3C382.8,60.4,381.1,59.9,379.1,59.9z"/>
	<path d="M441.4,41.4c-0.1,2.2-0.3,4.5-0.5,6.9c-0.2,2.4-0.6,4.6-1,6.7h-3l-3.4-8.7h-13.8v18.1h9l3.3-5.7h2.4
		c0.2,2.4,0.4,5.1,0.4,8.1s-0.1,5.7-0.4,8.3h-2.4l-3.3-5.8h-9v19.2H434L438,79h3c0.2,0.9,0.4,2,0.6,3.2c0.2,1.2,0.4,2.4,0.5,3.7
		c0.1,1.3,0.2,2.5,0.3,3.8c0.1,1.3,0.1,2.5,0.1,3.6h-40v-2.8c0.8-0.4,1.8-0.9,2.8-1.3c1-0.4,2.1-0.7,3.3-0.9V46.4
		c-1-0.2-2-0.5-3.1-0.9c-1.1-0.4-2.1-0.8-2.9-1.3v-2.8H441.4z"/>
	<path d="M446.7,93.2v-2c0.6-0.3,1.2-0.6,2-0.9c0.7-0.3,1.5-0.5,2.3-0.6V60.5c-0.8-0.2-1.6-0.4-2.3-0.6c-0.7-0.3-1.4-0.5-1.9-0.9v-2
		h6c0.6,0,1.3,0,2.2-0.1c0.9,0,1.8-0.1,2.7-0.1s1.8-0.1,2.7-0.2c0.9-0.1,1.6-0.1,2.3-0.1c3,0,5.7,0.4,8.1,1.2s4.4,2,6,3.5
		c1.6,1.5,2.9,3.4,3.8,5.6c0.9,2.2,1.3,4.8,1.3,7.8c0,2.9-0.4,5.5-1.2,7.8c-0.8,2.3-2.1,4.4-3.7,6s-3.8,2.9-6.3,3.9
		c-2.5,0.9-5.5,1.4-8.9,1.4c-0.4,0-1.1,0-1.8-0.1c-0.8-0.1-1.6-0.1-2.4-0.2c-0.9-0.1-1.7-0.1-2.6-0.2c-0.9-0.1-1.6-0.1-2.3-0.1
		H446.7z M461.9,59.9c-0.6,0-1.2,0-1.9,0.1c-0.6,0-1.2,0.1-1.6,0.2v30c0.1,0,0.4,0.1,0.7,0.1c0.3,0,0.7,0,1.1,0.1
		c0.4,0,0.7,0,1.1,0.1c0.3,0,0.6,0,0.8,0c2,0,3.7-0.4,5.1-1.2c1.4-0.8,2.5-2,3.4-3.4c0.9-1.4,1.6-3.1,2-5c0.4-1.9,0.6-3.9,0.6-6.1
		c0-1.9-0.2-3.7-0.6-5.5c-0.4-1.8-1.1-3.3-2-4.7c-0.9-1.4-2.1-2.5-3.5-3.3C465.6,60.4,463.9,59.9,461.9,59.9z"/>
	<path d="M501.5,93.2h-16.2v-2c1.4-0.8,2.8-1.3,4.2-1.5V60.5c-0.7-0.1-1.4-0.3-2.2-0.6c-0.8-0.3-1.4-0.6-2-0.9v-2h16.2v2
		c-0.6,0.4-1.3,0.7-2,1c-0.7,0.3-1.5,0.4-2.2,0.5v29.3c0.7,0.1,1.4,0.3,2.2,0.6c0.7,0.2,1.4,0.6,2,0.9V93.2z"/>
	<path d="M529.2,93.2h-17.8v-2c0.7-0.3,1.5-0.6,2.4-0.9c0.9-0.3,1.8-0.5,2.7-0.6V60.4h-6l-3.3,8.9H505c-0.1-0.7-0.3-1.6-0.4-2.6
		s-0.3-2.2-0.4-3.3s-0.2-2.3-0.3-3.4c-0.1-1.1-0.1-2.1-0.1-2.9h32.9c0,0.8,0,1.8-0.1,2.9c-0.1,1.1-0.2,2.2-0.3,3.4s-0.2,2.2-0.4,3.3
		c-0.1,1.1-0.3,1.9-0.4,2.7h-2.1l-3.3-8.9h-6v29.4c0.9,0.2,1.8,0.4,2.7,0.6c0.9,0.2,1.7,0.5,2.4,0.9V93.2z"/>
	<path d="M555.3,93.2h-16.2v-2c1.4-0.8,2.8-1.3,4.2-1.5V60.5c-0.7-0.1-1.4-0.3-2.2-0.6c-0.8-0.3-1.4-0.6-2-0.9v-2h16.2v2
		c-0.6,0.4-1.3,0.7-2,1c-0.7,0.3-1.5,0.4-2.2,0.5v29.3c0.7,0.1,1.4,0.3,2.2,0.6c0.7,0.2,1.4,0.6,2,0.9V93.2z"/>
	<path d="M558.8,75.1c0-2.7,0.4-5.2,1.1-7.5c0.8-2.3,1.9-4.3,3.4-6c1.5-1.7,3.3-3,5.5-3.9c2.2-0.9,4.7-1.4,7.5-1.4
		c2.8,0,5.3,0.5,7.5,1.4c2.2,0.9,4,2.2,5.5,3.9c1.5,1.7,2.6,3.7,3.3,6c0.8,2.3,1.1,4.8,1.1,7.5s-0.4,5.2-1.1,7.5
		c-0.8,2.3-1.9,4.3-3.3,6c-1.5,1.7-3.3,3-5.5,3.9c-2.2,0.9-4.7,1.4-7.5,1.4c-2.8,0-5.3-0.5-7.5-1.4c-2.2-0.9-4-2.2-5.5-3.9
		s-2.6-3.7-3.4-6C559.2,80.3,558.8,77.8,558.8,75.1z M567.6,75.1c0,2.2,0.2,4.3,0.5,6.1c0.3,1.9,0.9,3.5,1.6,4.9
		c0.7,1.4,1.7,2.4,2.8,3.2c1.2,0.8,2.5,1.2,4.2,1.2c1.5,0,2.7-0.4,3.8-1.2c1-0.8,1.9-1.8,2.5-3.2c0.7-1.4,1.1-3,1.4-4.9
		c0.3-1.9,0.4-3.9,0.4-6.1s-0.2-4.3-0.5-6.1c-0.3-1.9-0.8-3.5-1.6-4.9c-0.7-1.4-1.6-2.4-2.8-3.2c-1.2-0.8-2.6-1.2-4.2-1.2
		c-1.6,0-2.9,0.4-4,1.2c-1.1,0.8-1.9,1.8-2.6,3.2c-0.6,1.4-1.1,3-1.3,4.9C567.8,70.9,567.6,72.9,567.6,75.1z"/>
	<path d="M621.3,57h12.8v2c-0.7,0.5-1.4,1-2.2,1.4c-0.8,0.4-1.5,0.7-2.2,0.9v32.6h-4.4L607,67.5l-2.1-4h-0.2l0.5,4.1v21.6
		c0.7,0.2,1.5,0.5,2.3,0.9c0.8,0.4,1.6,0.8,2.2,1.2v2h-12.8v-2c0.6-0.4,1.3-0.8,2-1.2c0.7-0.4,1.5-0.7,2.3-0.9V61
		c-0.7-0.3-1.4-0.6-2.1-0.9c-0.7-0.3-1.3-0.7-1.9-1.1v-2h11.2l14.9,21.5l2.4,4.5h0.2l-0.3-4.4V61.3c-0.8-0.3-1.6-0.6-2.4-1
		c-0.8-0.4-1.5-0.8-2-1.3V57z"/>
	<path d="M643.3,88.9c0.4,0.4,0.9,0.7,1.6,1.1c0.7,0.3,1.6,0.5,2.7,0.5c1.9,0,3.5-0.5,4.7-1.5c1.3-1,1.9-2.4,1.9-4.1
		c0-1.3-0.4-2.3-1.2-3.2c-0.8-0.9-1.8-1.7-3.1-2.4c-1.2-0.7-2.6-1.4-4-2.1c-1.4-0.7-2.7-1.5-4-2.5c-1.2-1-2.3-2.1-3.1-3.4
		c-0.8-1.3-1.2-3-1.2-4.9c0-1.7,0.3-3.2,0.9-4.4c0.6-1.2,1.5-2.3,2.6-3.1c1.1-0.8,2.4-1.4,3.9-1.8c1.5-0.4,3.1-0.6,4.8-0.6
		c2.1,0,4.1,0.1,5.9,0.4c1.8,0.3,3.4,0.8,4.9,1.4c0,0.7-0.1,1.5-0.2,2.4c-0.1,0.9-0.2,1.8-0.3,2.7c-0.1,0.9-0.3,1.7-0.4,2.5
		c-0.2,0.8-0.3,1.4-0.4,1.9h-2.1l-2.4-7.1c-0.4-0.2-1-0.4-1.8-0.6c-0.8-0.2-1.7-0.3-2.5-0.3c-1.5,0-2.7,0.4-3.7,1.1
		s-1.5,1.9-1.5,3.3c0,1.3,0.4,2.4,1.2,3.3c0.8,0.9,1.9,1.8,3.1,2.5s2.6,1.5,4.1,2.3c1.5,0.7,2.8,1.6,4.1,2.6s2.3,2.1,3.1,3.4
		s1.2,2.9,1.2,4.8c0,3.5-1.2,6.1-3.5,8s-5.8,2.8-10.3,2.8c-1.1,0-2.2-0.1-3.3-0.2c-1.1-0.1-2.2-0.3-3.2-0.6s-1.9-0.5-2.7-0.8
		c-0.8-0.3-1.4-0.6-1.7-0.9c0-0.8,0.1-1.6,0.3-2.6c0.1-0.9,0.3-1.8,0.4-2.7s0.3-1.8,0.5-2.6c0.2-0.8,0.3-1.6,0.5-2.2h2.1L643.3,88.9
		z"/>
</g>
</svg>
